# The Great Editor v0.0.1
mtllib wall_1.mtl
o walls
v 0.0000 6.9496 0.000
v 0.0000 6.9496 2.5000
v 1.6054 11.7093 0.000
v 1.6054 11.7093 2.5000
v 1.7002 11.6773 0.000
v 1.7002 11.6773 2.5000
v 0.0948 6.9177 0.000
v 0.0948 6.9177 2.5000
v 1.6040 11.7085 0.000
v 1.6040 11.7085 2.5000
v 2.7147 11.3625 0.000
v 2.7147 11.3625 2.5000
v 2.6850 11.2670 0.000
v 2.6850 11.2670 2.5000
v 1.5742 11.6131 0.000
v 1.5742 11.6131 2.5000
v 2.7158 11.3604 0.000
v 2.7158 11.3604 2.5000
v 1.2758 7.2237 0.000
v 1.2758 7.2237 2.5000
v 1.1813 7.2565 0.000
v 1.1813 7.2565 2.5000
v 2.6213 11.3933 0.000
v 2.6213 11.3933 2.5000
v 1.2562 7.3571 0.000
v 1.2562 7.3571 2.5000
v 2.1871 6.0685 0.000
v 2.1871 6.0685 2.5000
v 2.1060 6.0099 0.000
v 2.1060 6.0099 2.5000
v 1.1752 7.2986 0.000
v 1.1752 7.2986 2.5000
v 2.1865 6.0654 0.000
v 2.1865 6.0654 2.5000
v 1.0868 5.3413 0.000
v 1.0868 5.3413 2.5000
v 1.0318 5.4248 0.000
v 1.0318 5.4248 2.5000
v 2.1315 6.1490 0.000
v 2.1315 6.1490 2.5000
v 1.1133 5.4802 0.000
v 1.1133 5.4802 2.5000
v 3.6920 1.7995 0.000
v 3.6920 1.7995 2.5000
v 3.6101 1.7422 0.000
v 3.6101 1.7422 2.5000
v 1.0314 5.4228 0.000
v 1.0314 5.4228 2.5000
v 3.5524 1.8220 0.000
v 3.5524 1.8220 2.5000
v 4.5293 2.5509 0.000
v 4.5293 2.5509 2.5000
v 4.5891 2.4708 0.000
v 4.5891 2.4708 2.5000
v 3.6122 1.7418 0.000
v 3.6122 1.7418 2.5000
v 4.5285 2.5510 0.000
v 4.5285 2.5510 2.5000
v 5.4018 1.4074 0.000
v 5.4018 1.4074 2.5000
v 5.3223 1.3468 0.000
v 5.3223 1.3468 2.5000
v 4.4490 2.4903 0.000
v 4.4490 2.4903 2.5000
v 5.2818 1.4669 0.000
v 5.2818 1.4669 2.5000
v 12.2793 1.4530 0.000
v 12.2793 1.4530 2.5000
v 12.2791 1.3530 0.000
v 12.2791 1.3530 2.5000
v 5.2816 1.3669 0.000
v 5.2816 1.3669 2.5000
v 12.2781 1.4542 0.000
v 12.2781 1.4542 2.5000
v 12.3038 0.2544 0.000
v 12.3038 0.2544 2.5000
v 12.2038 0.2523 0.000
v 12.2038 0.2523 2.5000
v 12.1781 1.4520 0.000
v 12.1781 1.4520 2.5000
v 12.3027 0.2533 0.000
v 12.3027 0.2533 2.5000
v 4.5904 0.2541 0.000
v 4.5904 0.2541 2.5000
v 4.5905 0.3541 0.000
v 4.5905 0.3541 2.5000
v 12.3027 0.3533 0.000
v 12.3027 0.3533 2.5000
v 4.6270 0.2347 0.000
v 4.6270 0.2347 2.5000
v 3.5530 1.8252 0.000
v 3.5530 1.8252 2.5000
v 3.6359 1.8812 0.000
v 3.6359 1.8812 2.5000
v 4.7099 0.2907 0.000
v 4.7099 0.2907 2.5000
v 12.2027 0.3533 0.000
v 12.2027 0.3533 2.5000
v 32.8495 0.3480 0.000
v 32.8495 0.3480 2.5000
v 32.8495 0.2480 0.000
v 32.8495 0.2480 2.5000
v 12.2027 0.2533 0.000
v 12.2027 0.2533 2.5000
v 32.8495 0.3480 0.000
v 32.8495 0.3480 2.5000
v 32.8495 0.1299 0.000
v 32.8495 0.1299 2.5000
v 32.7495 0.1299 0.000
v 32.7495 0.1299 2.5000
v 32.7495 0.3480 0.000
v 32.7495 0.3480 2.5000
v 32.7495 0.2299 0.000
v 32.7495 0.2299 2.5000
v 34.7511 0.2294 0.000
v 34.7511 0.2294 2.5000
v 34.7511 0.1294 0.000
v 34.7511 0.1294 2.5000
v 32.7495 0.1299 0.000
v 32.7495 0.1299 2.5000
v 34.7511 0.2294 0.000
v 34.7511 0.2294 2.5000
v 34.7510 0.0026 0.000
v 34.7510 0.0026 2.5000
v 34.6510 0.0026 0.000
v 34.6510 0.0026 2.5000
v 34.6511 0.2294 0.000
v 34.6511 0.2294 2.5000
v 34.6511 0.1026 0.000
v 34.6511 0.1026 2.5000
v 44.6476 0.1000 0.000
v 44.6476 0.1000 2.5000
v 44.6476 0.0000 0.000
v 44.6476 0.0000 2.5000
v 34.6510 0.0026 0.000
v 34.6510 0.0026 2.5000
v 44.5476 0.0000 0.000
v 44.5476 0.0000 2.5000
v 44.5492 6.3061 0.000
v 44.5492 6.3061 2.5000
v 44.6492 6.3061 0.000
v 44.6492 6.3061 2.5000
v 44.6476 0.0000 0.000
v 44.6476 0.0000 2.5000
v 44.6492 6.2061 0.000
v 44.6492 6.2061 2.5000
v 44.3379 6.2062 0.000
v 44.3379 6.2062 2.5000
v 44.3379 6.3062 0.000
v 44.3379 6.3062 2.5000
v 44.6492 6.3061 0.000
v 44.6492 6.3061 2.5000
v 44.3379 6.2062 0.000
v 44.3379 6.2062 2.5000
v 44.3400 14.3293 0.000
v 44.3400 14.3293 2.5000
v 44.4400 14.3293 0.000
v 44.4400 14.3293 2.5000
v 44.4379 6.2062 0.000
v 44.4379 6.2062 2.5000
v 44.4400 14.2293 0.000
v 44.4400 14.2293 2.5000
v 44.1371 14.2294 0.000
v 44.1371 14.2294 2.5000
v 44.1371 14.3294 0.000
v 44.1371 14.3294 2.5000
v 44.4400 14.3293 0.000
v 44.4400 14.3293 2.5000
v 44.1371 14.2294 0.000
v 44.1371 14.2294 2.5000
v 44.1386 20.0312 0.000
v 44.1386 20.0312 2.5000
v 44.2386 20.0312 0.000
v 44.2386 20.0312 2.5000
v 44.2371 14.2293 0.000
v 44.2371 14.2293 2.5000
v 44.1386 19.9312 0.000
v 44.1386 19.9312 2.5000
v 44.1394 22.9498 0.000
v 44.1394 22.9498 2.5000
v 44.2394 22.9498 0.000
v 44.2394 22.9498 2.5000
v 44.2386 19.9312 0.000
v 44.2386 19.9312 2.5000
v 44.2393 22.8498 0.000
v 44.2393 22.8498 2.5000
v 5.2759 22.8599 0.000
v 5.2759 22.8599 2.5000
v 5.2759 22.9599 0.000
v 5.2759 22.9599 2.5000
v 44.2394 22.9498 0.000
v 44.2394 22.9498 2.5000
v 5.3903 22.9390 0.000
v 5.3903 22.9390 2.5000
v 4.7901 21.3486 0.000
v 4.7901 21.3486 2.5000
v 4.6965 21.3839 0.000
v 4.6965 21.3839 2.5000
v 5.2968 22.9743 0.000
v 5.2968 22.9743 2.5000
v 4.7226 21.4724 0.000
v 4.7226 21.4724 2.5000
v 5.8247 21.2344 0.000
v 5.8247 21.2344 2.5000
v 5.8036 21.1367 0.000
v 5.8036 21.1367 2.5000
v 4.7015 21.3747 0.000
v 4.7015 21.3747 2.5000
v 5.7015 21.1654 0.000
v 5.7015 21.1654 2.5000
v 6.1419 22.4216 0.000
v 6.1419 22.4216 2.5000
v 6.2363 22.3885 0.000
v 6.2363 22.3885 2.5000
v 5.7959 21.1324 0.000
v 5.7959 21.1324 2.5000
v 6.1226 22.4079 0.000
v 6.1226 22.4079 2.5000
v 11.0015 22.4066 0.000
v 11.0015 22.4066 2.5000
v 11.0014 22.3066 0.000
v 11.0014 22.3066 2.5000
v 6.1225 22.3079 0.000
v 6.1225 22.3079 2.5000
v 11.0015 22.4066 0.000
v 11.0015 22.4066 2.5000
v 11.0012 21.2366 0.000
v 11.0012 21.2366 2.5000
v 10.9012 21.2366 0.000
v 10.9012 21.2366 2.5000
v 10.9015 22.4066 0.000
v 10.9015 22.4066 2.5000
v 10.9012 21.3366 0.000
v 10.9012 21.3366 2.5000
v 11.2112 21.3365 0.000
v 11.2112 21.3365 2.5000
v 11.2112 21.2365 0.000
v 11.2112 21.2365 2.5000
v 10.9012 21.2366 0.000
v 10.9012 21.2366 2.5000
v 11.1112 21.2366 0.000
v 11.1112 21.2366 2.5000
v 11.1115 22.4000 0.000
v 11.1115 22.4000 2.5000
v 11.2115 22.4000 0.000
v 11.2115 22.4000 2.5000
v 11.2112 21.2365 0.000
v 11.2112 21.2365 2.5000
v 11.1115 22.4000 0.000
v 11.1115 22.4000 2.5000
v 17.1194 22.3984 0.000
v 17.1194 22.3984 2.5000
v 17.1194 22.2984 0.000
v 17.1194 22.2984 2.5000
v 11.1114 22.3000 0.000
v 11.1114 22.3000 2.5000
v 17.1194 22.3984 0.000
v 17.1194 22.3984 2.5000
v 17.1192 21.6749 0.000
v 17.1192 21.6749 2.5000
v 17.0192 21.6749 0.000
v 17.0192 21.6749 2.5000
v 17.0194 22.3985 0.000
v 17.0194 22.3985 2.5000
v 17.0193 21.7749 0.000
v 17.0193 21.7749 2.5000
v 25.2555 21.7728 0.000
v 25.2555 21.7728 2.5000
v 25.2555 21.6728 0.000
v 25.2555 21.6728 2.5000
v 17.0192 21.6749 0.000
v 17.0192 21.6749 2.5000
v 25.2555 21.7728 0.000
v 25.2555 21.7728 2.5000
v 25.2540 16.0349 0.000
v 25.2540 16.0349 2.5000
v 25.1540 16.0349 0.000
v 25.1540 16.0349 2.5000
v 25.1555 21.7728 0.000
v 25.1555 21.7728 2.5000
v 25.2540 16.0349 0.000
v 25.2540 16.0349 2.5000
v 14.7682 16.0376 0.000
v 14.7682 16.0376 2.5000
v 14.7682 16.1376 0.000
v 14.7682 16.1376 2.5000
v 25.2541 16.1349 0.000
v 25.2541 16.1349 2.5000
v 4.0391 16.0598 0.000
v 4.0391 16.0598 2.5000
v 4.9598 18.6807 0.000
v 4.9598 18.6807 2.5000
v 5.0542 18.6476 0.000
v 5.0542 18.6476 2.5000
v 4.1334 16.0266 0.000
v 4.1334 16.0266 2.5000
v 5.0242 18.5548 0.000
v 5.0242 18.5548 2.5000
v 3.9177 18.8826 0.000
v 3.9177 18.8826 2.5000
v 3.9461 18.9785 0.000
v 3.9461 18.9785 2.5000
v 5.0526 18.6507 0.000
v 5.0526 18.6507 2.5000
v 3.9171 18.8835 0.000
v 3.9171 18.8835 2.5000
v 4.7282 21.4756 0.000
v 4.7282 21.4756 2.5000
v 4.8236 21.4458 0.000
v 4.8236 21.4458 2.5000
v 4.0126 18.8537 0.000
v 4.0126 18.8537 2.5000
v 4.0431 18.9478 0.000
v 4.0431 18.9478 2.5000
v 2.5353 14.4599 0.000
v 2.5353 14.4599 2.5000
v 2.4405 14.4918 0.000
v 2.4405 14.4918 2.5000
v 3.9483 18.9796 0.000
v 3.9483 18.9796 2.5000
v 2.4768 14.5886 0.000
v 2.4768 14.5886 2.5000
v 3.4663 14.1788 0.000
v 3.4663 14.1788 2.5000
v 3.4281 14.0864 0.000
v 3.4281 14.0864 2.5000
v 2.4385 14.4962 0.000
v 2.4385 14.4962 2.5000
v 3.3370 14.1217 0.000
v 3.3370 14.1217 2.5000
v 4.0728 16.1544 0.000
v 4.0728 16.1544 2.5000
v 4.1669 16.1203 0.000
v 4.1669 16.1203 2.5000
v 3.4310 14.0877 0.000
v 3.4310 14.0877 2.5000
v 2.5661 14.5567 0.000
v 2.5661 14.5567 2.5000
v 1.6703 11.5836 0.000
v 1.6703 11.5836 2.5000
v 1.5745 11.6125 0.000
v 1.5745 11.6125 2.5000
v 2.4704 14.5855 0.000
v 2.4704 14.5855 2.5000
v 11.2112 21.3365 0.000
v 11.2112 21.3365 2.5000
v 11.2104 18.5095 0.000
v 11.2104 18.5095 2.5000
v 11.1104 18.5095 0.000
v 11.1104 18.5095 2.5000
v 11.1112 21.3366 0.000
v 11.1112 21.3366 2.5000
v 11.2105 18.6095 0.000
v 11.2105 18.6095 2.5000
v 11.2098 16.0791 0.000
v 11.2098 16.0791 2.5000
v 11.1098 16.0791 0.000
v 11.1098 16.0791 2.5000
v 11.1105 18.6095 0.000
v 11.1105 18.6095 2.5000
v 7.7905 16.0805 0.000
v 7.7905 16.0805 2.5000
v 4.0534 16.0398 0.000
v 4.0534 16.0398 2.5000
v 4.0523 16.1398 0.000
v 4.0523 16.1398 2.5000
v 7.7894 16.1805 0.000
v 7.7894 16.1805 2.5000
v 25.1555 21.7728 0.000
v 25.1555 21.7728 2.5000
v 25.9665 21.7726 0.000
v 25.9665 21.7726 2.5000
v 25.9665 21.6726 0.000
v 25.9665 21.6726 2.5000
v 25.1555 21.6728 0.000
v 25.1555 21.6728 2.5000
v 25.8665 21.6726 0.000
v 25.8665 21.6726 2.5000
v 25.8666 22.1462 0.000
v 25.8666 22.1462 2.5000
v 25.9666 22.1462 0.000
v 25.9666 22.1462 2.5000
v 25.9665 21.6726 0.000
v 25.9665 21.6726 2.5000
v 25.8666 22.1462 0.000
v 25.8666 22.1462 2.5000
v 32.5109 22.1445 0.000
v 32.5109 22.1445 2.5000
v 32.5109 22.0445 0.000
v 32.5109 22.0445 2.5000
v 25.8666 22.0462 0.000
v 25.8666 22.0462 2.5000
v 32.5109 22.1445 0.000
v 32.5109 22.1445 2.5000
v 32.5107 21.2139 0.000
v 32.5107 21.2139 2.5000
v 32.4107 21.2139 0.000
v 32.4107 21.2139 2.5000
v 32.4109 22.1445 0.000
v 32.4109 22.1445 2.5000
v 32.4107 21.3139 0.000
v 32.4107 21.3139 2.5000
v 43.3340 21.3111 0.000
v 43.3340 21.3111 2.5000
v 43.3339 21.2111 0.000
v 43.3339 21.2111 2.5000
v 32.4107 21.2139 0.000
v 32.4107 21.2139 2.5000
v 43.3340 21.3111 0.000
v 43.3340 21.3111 2.5000
v 43.3330 17.6495 0.000
v 43.3330 17.6495 2.5000
v 43.2330 17.6495 0.000
v 43.2330 17.6495 2.5000
v 43.2340 21.3111 0.000
v 43.2340 21.3111 2.5000
v 43.2330 17.7495 0.000
v 43.2330 17.7495 2.5000
v 43.4589 17.7494 0.000
v 43.4589 17.7494 2.5000
v 43.4589 17.6494 0.000
v 43.4589 17.6494 2.5000
v 43.2330 17.6495 0.000
v 43.2330 17.6495 2.5000
v 43.4589 17.7494 0.000
v 43.4589 17.7494 2.5000
v 43.4560 6.6122 0.000
v 43.4560 6.6122 2.5000
v 43.3560 6.6122 0.000
v 43.3560 6.6122 2.5000
v 43.3589 17.7495 0.000
v 43.3589 17.7495 2.5000
v 28.4113 15.2039 0.000
v 28.4113 15.2039 2.5000
v 28.4131 21.9625 0.000
v 28.4131 21.9625 2.5000
v 28.5131 21.9625 0.000
v 28.5131 21.9625 2.5000
v 28.5113 15.2039 0.000
v 28.5113 15.2039 2.5000
v 28.4114 15.3039 0.000
v 28.4114 15.3039 2.5000
v 28.7405 15.3038 0.000
v 28.7405 15.3038 2.5000
v 28.7404 15.2038 0.000
v 28.7404 15.2038 2.5000
v 28.4113 15.2039 0.000
v 28.4113 15.2039 2.5000
v 28.6404 15.2038 0.000
v 28.6404 15.2038 2.5000
v 28.6415 19.3134 0.000
v 28.6415 19.3134 2.5000
v 28.7415 19.3134 0.000
v 28.7415 19.3134 2.5000
v 28.7404 15.2038 0.000
v 28.7404 15.2038 2.5000
v 28.6415 19.3134 0.000
v 28.6415 19.3134 2.5000
v 32.6651 19.3123 0.000
v 32.6651 19.3123 2.5000
v 32.6650 19.2123 0.000
v 32.6650 19.2123 2.5000
v 28.6415 19.2134 0.000
v 28.6415 19.2134 2.5000
v 32.6651 19.3123 0.000
v 32.6651 19.3123 2.5000
v 32.6640 15.1026 0.000
v 32.6640 15.1026 2.5000
v 32.5640 15.1026 0.000
v 32.5640 15.1026 2.5000
v 32.5651 19.3124 0.000
v 32.5651 19.3124 2.5000
v 25.1541 16.1349 0.000
v 25.1541 16.1349 2.5000
v 26.0085 16.1347 0.000
v 26.0085 16.1347 2.5000
v 26.0085 16.0347 0.000
v 26.0085 16.0347 2.5000
v 25.1540 16.0349 0.000
v 25.1540 16.0349 2.5000
v 26.0085 16.1347 0.000
v 26.0085 16.1347 2.5000
v 26.0082 15.1273 0.000
v 26.0082 15.1273 2.5000
v 25.9082 15.1273 0.000
v 25.9082 15.1273 2.5000
v 25.9085 16.1347 0.000
v 25.9085 16.1347 2.5000
v 25.9083 15.2273 0.000
v 25.9083 15.2273 2.5000
v 26.5872 15.2271 0.000
v 26.5872 15.2271 2.5000
v 26.5872 15.1271 0.000
v 26.5872 15.1271 2.5000
v 25.9082 15.1273 0.000
v 25.9082 15.1273 2.5000
v 43.4560 6.6122 0.000
v 43.4560 6.6122 2.5000
v 32.7366 6.6150 0.000
v 32.7366 6.6150 2.5000
v 32.7366 6.7150 0.000
v 32.7366 6.7150 2.5000
v 43.4560 6.7122 0.000
v 43.4560 6.7122 2.5000
v 32.8366 6.7149 0.000
v 32.8366 6.7149 2.5000
v 32.8364 5.6375 0.000
v 32.8364 5.6375 2.5000
v 32.7364 5.6375 0.000
v 32.7364 5.6375 2.5000
v 32.7366 6.7150 0.000
v 32.7366 6.7150 2.5000
v 32.6988 1.2430 0.000
v 32.6988 1.2430 2.5000
v 43.6075 1.2402 0.000
v 43.6075 1.2402 2.5000
v 43.6074 1.1402 0.000
v 43.6074 1.1402 2.5000
v 32.6988 1.1430 0.000
v 32.6988 1.1430 2.5000
v 43.5074 1.1402 0.000
v 43.5074 1.1402 2.5000
v 43.5088 6.2806 0.000
v 43.5088 6.2806 2.5000
v 43.6088 6.2806 0.000
v 43.6088 6.2806 2.5000
v 43.6074 1.1402 0.000
v 43.6074 1.1402 2.5000
v 43.5072 6.2791 0.000
v 43.5072 6.2791 2.5000
v 44.4363 6.3077 0.000
v 44.4363 6.3077 2.5000
v 44.4394 6.2077 0.000
v 44.4394 6.2077 2.5000
v 43.5103 6.1791 0.000
v 43.5103 6.1791 2.5000
v 43.6087 6.1806 0.000
v 43.6087 6.1806 2.5000
v 33.1914 6.1833 0.000
v 33.1914 6.1833 2.5000
v 33.1914 6.2833 0.000
v 33.1914 6.2833 2.5000
v 43.6088 6.2806 0.000
v 43.6088 6.2806 2.5000
v 33.3118 6.2397 0.000
v 33.3118 6.2397 2.5000
v 32.7928 5.6171 0.000
v 32.7928 5.6171 2.5000
v 32.7159 5.6811 0.000
v 32.7159 5.6811 2.5000
v 33.2350 6.3037 0.000
v 33.2350 6.3037 2.5000
v 14.7715 1.4525 0.000
v 14.7715 1.4525 2.5000
v 32.0817 1.4480 0.000
v 32.0817 1.4480 2.5000
v 32.0817 1.3480 0.000
v 32.0817 1.3480 2.5000
v 14.7715 1.3525 0.000
v 14.7715 1.3525 2.5000
v 31.9973 1.4598 0.000
v 31.9973 1.4598 2.5000
v 32.8106 1.2273 0.000
v 32.8106 1.2273 2.5000
v 32.7832 1.1312 0.000
v 32.7832 1.1312 2.5000
v 31.9699 1.3636 0.000
v 31.9699 1.3636 2.5000
v 14.8704 1.4535 0.000
v 14.8704 1.4535 2.5000
v 14.8952 0.2587 0.000
v 14.8952 0.2587 2.5000
v 14.7952 0.2567 0.000
v 14.7952 0.2567 2.5000
v 14.7705 1.4514 0.000
v 14.7705 1.4514 2.5000
vt 0.000 0.000
vt 0.000 1.0000
vt 4.9231 0.000
vt 4.9231 1.0000
vt 5.0231 0.000
vt 5.0231 1.0000
vt 9.9462 0.000
vt 9.9462 1.0000
vt 0.000 0.000
vt 0.000 1.0000
vt 1.0634 0.000
vt 1.0634 1.0000
vt 1.1634 0.000
vt 1.1634 1.0000
vt 2.2268 0.000
vt 2.2268 1.0000
vt 0.000 0.000
vt 0.000 1.0000
vt 4.2802 0.000
vt 4.2802 1.0000
vt 4.3802 0.000
vt 4.3802 1.0000
vt 8.6604 0.000
vt 8.6604 1.0000
vt 0.000 0.000
vt 0.000 1.0000
vt 1.4897 0.000
vt 1.4897 1.0000
vt 1.5897 0.000
vt 1.5897 1.0000
vt 3.0794 0.000
vt 3.0794 1.0000
vt 0.000 0.000
vt 0.000 1.0000
vt 1.2168 0.000
vt 1.2168 1.0000
vt 1.3168 0.000
vt 1.3168 1.0000
vt 2.5335 0.000
vt 2.5335 1.0000
vt 0.000 0.000
vt 0.000 1.0000
vt 4.3941 0.000
vt 4.3941 1.0000
vt 4.4941 0.000
vt 4.4941 1.0000
vt 8.8882 0.000
vt 8.8882 1.0000
vt 0.000 0.000
vt 0.000 1.0000
vt 1.1189 0.000
vt 1.1189 1.0000
vt 1.2189 0.000
vt 1.2189 1.0000
vt 2.3377 0.000
vt 2.3377 1.0000
vt 0.000 0.000
vt 0.000 1.0000
vt 1.3389 0.000
vt 1.3389 1.0000
vt 1.4389 0.000
vt 1.4389 1.0000
vt 2.7778 0.000
vt 2.7778 1.0000
vt 0.000 0.000
vt 0.000 1.0000
vt 6.8975 0.000
vt 6.8975 1.0000
vt 6.9975 0.000
vt 6.9975 1.0000
vt 13.8949 0.000
vt 13.8949 1.0000
vt 0.000 0.000
vt 0.000 1.0000
vt 1.1001 0.000
vt 1.1001 1.0000
vt 1.2001 0.000
vt 1.2001 1.0000
vt 2.3001 0.000
vt 2.3001 1.0000
vt 0.000 0.000
vt 0.000 1.0000
vt 7.6123 0.000
vt 7.6123 1.0000
vt 7.7123 0.000
vt 7.7123 1.0000
vt 15.3245 0.000
vt 15.3245 1.0000
vt 0.000 0.000
vt 0.000 1.0000
vt 1.8192 0.000
vt 1.8192 1.0000
vt 1.9192 0.000
vt 1.9192 1.0000
vt 3.7384 0.000
vt 3.7384 1.0000
vt 0.000 0.000
vt 0.000 1.0000
vt 20.5468 0.000
vt 20.5468 1.0000
vt 20.6468 0.000
vt 20.6468 1.0000
vt 41.1936 0.000
vt 41.1936 1.0000
vt 0.000 0.000
vt 0.000 1.0000
vt 0.1181 0.000
vt 0.1181 1.0000
vt 0.2181 0.000
vt 0.2181 1.0000
vt 0.3362 0.000
vt 0.3362 1.0000
vt 0.000 0.000
vt 0.000 1.0000
vt 1.9016 0.000
vt 1.9016 1.0000
vt 2.0016 0.000
vt 2.0016 1.0000
vt 3.9032 0.000
vt 3.9032 1.0000
vt 0.000 0.000
vt 0.000 1.0000
vt 0.1268 0.000
vt 0.1268 1.0000
vt 0.2268 0.000
vt 0.2268 1.0000
vt 0.3536 0.000
vt 0.3536 1.0000
vt 0.000 0.000
vt 0.000 1.0000
vt 9.8965 0.000
vt 9.8965 1.0000
vt 9.9965 0.000
vt 9.9965 1.0000
vt 19.8931 0.000
vt 19.8931 1.0000
vt 0.000 0.000
vt 0.000 1.0000
vt 6.2061 0.000
vt 6.2061 1.0000
vt 6.3061 0.000
vt 6.3061 1.0000
vt 12.5122 0.000
vt 12.5122 1.0000
vt 0.000 0.000
vt 0.000 1.0000
vt 0.2113 0.000
vt 0.2113 1.0000
vt 0.3113 0.000
vt 0.3113 1.0000
vt 0.5226 0.000
vt 0.5226 1.0000
vt 0.000 0.000
vt 0.000 1.0000
vt 8.0231 0.000
vt 8.0231 1.0000
vt 8.1231 0.000
vt 8.1231 1.0000
vt 16.1462 0.000
vt 16.1462 1.0000
vt 0.000 0.000
vt 0.000 1.0000
vt 0.2029 0.000
vt 0.2029 1.0000
vt 0.3029 0.000
vt 0.3029 1.0000
vt 0.5057 0.000
vt 0.5057 1.0000
vt 0.000 0.000
vt 0.000 1.0000
vt 5.7018 0.000
vt 5.7018 1.0000
vt 5.8018 0.000
vt 5.8018 1.0000
vt 11.5037 0.000
vt 11.5037 1.0000
vt 0.000 0.000
vt 0.000 1.0000
vt 2.9186 0.000
vt 2.9186 1.0000
vt 3.0186 0.000
vt 3.0186 1.0000
vt 5.9371 0.000
vt 5.9371 1.0000
vt 0.000 0.000
vt 0.000 1.0000
vt 38.8634 0.000
vt 38.8634 1.0000
vt 38.9634 0.000
vt 38.9634 1.0000
vt 77.8269 0.000
vt 77.8269 1.0000
vt 0.000 0.000
vt 0.000 1.0000
vt 1.5999 0.000
vt 1.5999 1.0000
vt 1.6999 0.000
vt 1.6999 1.0000
vt 3.2999 0.000
vt 3.2999 1.0000
vt 0.000 0.000
vt 0.000 1.0000
vt 1.0275 0.000
vt 1.0275 1.0000
vt 1.1275 0.000
vt 1.1275 1.0000
vt 2.1549 0.000
vt 2.1549 1.0000
vt 0.000 0.000
vt 0.000 1.0000
vt 1.2311 0.000
vt 1.2311 1.0000
vt 1.3311 0.000
vt 1.3311 1.0000
vt 2.5622 0.000
vt 2.5622 1.0000
vt 0.000 0.000
vt 0.000 1.0000
vt 4.7789 0.000
vt 4.7789 1.0000
vt 4.8789 0.000
vt 4.8789 1.0000
vt 9.6578 0.000
vt 9.6578 1.0000
vt 0.000 0.000
vt 0.000 1.0000
vt 1.0700 0.000
vt 1.0700 1.0000
vt 1.1700 0.000
vt 1.1700 1.0000
vt 2.2400 0.000
vt 2.2400 1.0000
vt 0.000 0.000
vt 0.000 1.0000
vt 0.2100 0.000
vt 0.2100 1.0000
vt 0.3100 0.000
vt 0.3100 1.0000
vt 0.5200 0.000
vt 0.5200 1.0000
vt 0.000 0.000
vt 0.000 1.0000
vt 1.0634 0.000
vt 1.0634 1.0000
vt 1.1634 0.000
vt 1.1634 1.0000
vt 2.2268 0.000
vt 2.2268 1.0000
vt 0.000 0.000
vt 0.000 1.0000
vt 5.9080 0.000
vt 5.9080 1.0000
vt 6.0080 0.000
vt 6.0080 1.0000
vt 11.9159 0.000
vt 11.9159 1.0000
vt 0.000 0.000
vt 0.000 1.0000
vt 0.6235 0.000
vt 0.6235 1.0000
vt 0.7235 0.000
vt 0.7235 1.0000
vt 1.3471 0.000
vt 1.3471 1.0000
vt 0.000 0.000
vt 0.000 1.0000
vt 8.1363 0.000
vt 8.1363 1.0000
vt 8.2363 0.000
vt 8.2363 1.0000
vt 16.3725 0.000
vt 16.3725 1.0000
vt 0.000 0.000
vt 0.000 1.0000
vt 5.6379 0.000
vt 5.6379 1.0000
vt 5.7379 0.000
vt 5.7379 1.0000
vt 11.3758 0.000
vt 11.3758 1.0000
vt 0.000 0.000
vt 0.000 1.0000
vt 10.3859 0.000
vt 10.3859 1.0000
vt 10.4859 0.000
vt 10.4859 1.0000
vt 20.8717 0.000
vt 20.8717 1.0000
vt 0.000 0.000
vt 0.000 1.0000
vt 2.6780 0.000
vt 2.6780 1.0000
vt 2.7780 0.000
vt 2.7780 1.0000
vt 5.4560 0.000
vt 5.4560 1.0000
vt 0.000 0.000
vt 0.000 1.0000
vt 1.0540 0.000
vt 1.0540 1.0000
vt 1.1540 0.000
vt 1.1540 1.0000
vt 2.2081 0.000
vt 2.2081 1.0000
vt 0.000 0.000
vt 0.000 1.0000
vt 2.6160 0.000
vt 2.6160 1.0000
vt 2.7160 0.000
vt 2.7160 1.0000
vt 5.3321 0.000
vt 5.3321 1.0000
vt 0.000 0.000
vt 0.000 1.0000
vt 4.6344 0.000
vt 4.6344 1.0000
vt 4.7344 0.000
vt 4.7344 1.0000
vt 9.3688 0.000
vt 9.3688 1.0000
vt 0.000 0.000
vt 0.000 1.0000
vt 0.9710 0.000
vt 0.9710 1.0000
vt 1.0710 0.000
vt 1.0710 1.0000
vt 2.0421 0.000
vt 2.0421 1.0000
vt 0.000 0.000
vt 0.000 1.0000
vt 2.0618 0.000
vt 2.0618 1.0000
vt 2.1618 0.000
vt 2.1618 1.0000
vt 4.2235 0.000
vt 4.2235 1.0000
vt 0.000 0.000
vt 0.000 1.0000
vt 3.0051 0.000
vt 3.0051 1.0000
vt 3.1051 0.000
vt 3.1051 1.0000
vt 6.1102 0.000
vt 6.1102 1.0000
vt 0.000 0.000
vt 0.000 1.0000
vt 2.7271 0.000
vt 2.7271 1.0000
vt 2.8271 0.000
vt 2.8271 1.0000
vt 5.5542 0.000
vt 5.5542 1.0000
vt 0.000 0.000
vt 0.000 1.0000
vt 2.4304 0.000
vt 2.4304 1.0000
vt 2.5304 0.000
vt 2.5304 1.0000
vt 4.9608 0.000
vt 4.9608 1.0000
vt 0.000 0.000
vt 0.000 1.0000
vt 3.6373 0.000
vt 3.6373 1.0000
vt 3.7373 0.000
vt 3.7373 1.0000
vt 7.3746 0.000
vt 7.3746 1.0000
vt 0.000 0.000
vt 0.000 1.0000
vt 0.7110 0.000
vt 0.7110 1.0000
vt 0.8110 0.000
vt 0.8110 1.0000
vt 1.5220 0.000
vt 1.5220 1.0000
vt 0.000 0.000
vt 0.000 1.0000
vt 0.3736 0.000
vt 0.3736 1.0000
vt 0.4736 0.000
vt 0.4736 1.0000
vt 0.8472 0.000
vt 0.8472 1.0000
vt 0.000 0.000
vt 0.000 1.0000
vt 6.5443 0.000
vt 6.5443 1.0000
vt 6.6443 0.000
vt 6.6443 1.0000
vt 13.1886 0.000
vt 13.1886 1.0000
vt 0.000 0.000
vt 0.000 1.0000
vt 0.8306 0.000
vt 0.8306 1.0000
vt 0.9306 0.000
vt 0.9306 1.0000
vt 1.7612 0.000
vt 1.7612 1.0000
vt 0.000 0.000
vt 0.000 1.0000
vt 10.8233 0.000
vt 10.8233 1.0000
vt 10.9233 0.000
vt 10.9233 1.0000
vt 21.7465 0.000
vt 21.7465 1.0000
vt 0.000 0.000
vt 0.000 1.0000
vt 3.5616 0.000
vt 3.5616 1.0000
vt 3.6616 0.000
vt 3.6616 1.0000
vt 7.2232 0.000
vt 7.2232 1.0000
vt 0.000 0.000
vt 0.000 1.0000
vt 0.1259 0.000
vt 0.1259 1.0000
vt 0.2259 0.000
vt 0.2259 1.0000
vt 0.3517 0.000
vt 0.3517 1.0000
vt 0.000 0.000
vt 0.000 1.0000
vt 11.0373 0.000
vt 11.0373 1.0000
vt 11.1373 0.000
vt 11.1373 1.0000
vt 22.1745 0.000
vt 22.1745 1.0000
vt 0.000 0.000
vt 0.000 1.0000
vt 6.6586 0.000
vt 6.6586 1.0000
vt 6.7586 0.000
vt 6.7586 1.0000
vt 13.4172 0.000
vt 13.4172 1.0000
vt 0.000 0.000
vt 0.000 1.0000
vt 0.2291 0.000
vt 0.2291 1.0000
vt 0.3291 0.000
vt 0.3291 1.0000
vt 0.5582 0.000
vt 0.5582 1.0000
vt 0.000 0.000
vt 0.000 1.0000
vt 4.0095 0.000
vt 4.0095 1.0000
vt 4.1095 0.000
vt 4.1095 1.0000
vt 8.1191 0.000
vt 8.1191 1.0000
vt 0.000 0.000
vt 0.000 1.0000
vt 3.9236 0.000
vt 3.9236 1.0000
vt 4.0236 0.000
vt 4.0236 1.0000
vt 7.9471 0.000
vt 7.9471 1.0000
vt 0.000 0.000
vt 0.000 1.0000
vt 4.1098 0.000
vt 4.1098 1.0000
vt 4.2098 0.000
vt 4.2098 1.0000
vt 8.3196 0.000
vt 8.3196 1.0000
vt 0.000 0.000
vt 0.000 1.0000
vt 0.7544 0.000
vt 0.7544 1.0000
vt 0.8544 0.000
vt 0.8544 1.0000
vt 1.6089 0.000
vt 1.6089 1.0000
vt 0.000 0.000
vt 0.000 1.0000
vt 0.9074 0.000
vt 0.9074 1.0000
vt 1.0074 0.000
vt 1.0074 1.0000
vt 1.9148 0.000
vt 1.9148 1.0000
vt 0.000 0.000
vt 0.000 1.0000
vt 0.5790 0.000
vt 0.5790 1.0000
vt 0.6790 0.000
vt 0.6790 1.0000
vt 1.2579 0.000
vt 1.2579 1.0000
vt 0.000 0.000
vt 0.000 1.0000
vt 10.6194 0.000
vt 10.6194 1.0000
vt 10.7194 0.000
vt 10.7194 1.0000
vt 21.3388 0.000
vt 21.3388 1.0000
vt 0.000 0.000
vt 0.000 1.0000
vt 0.9774 0.000
vt 0.9774 1.0000
vt 1.0774 0.000
vt 1.0774 1.0000
vt 2.0548 0.000
vt 2.0548 1.0000
vt 0.000 0.000
vt 0.000 1.0000
vt 10.8086 0.000
vt 10.8086 1.0000
vt 10.9086 0.000
vt 10.9086 1.0000
vt 21.7173 0.000
vt 21.7173 1.0000
vt 0.000 0.000
vt 0.000 1.0000
vt 5.0405 0.000
vt 5.0405 1.0000
vt 5.1405 0.000
vt 5.1405 1.0000
vt 10.1809 0.000
vt 10.1809 1.0000
vt 0.000 0.000
vt 0.000 1.0000
vt 0.8295 0.000
vt 0.8295 1.0000
vt 0.9295 0.000
vt 0.9295 1.0000
vt 1.7590 0.000
vt 1.7590 1.0000
vt 0.000 0.000
vt 0.000 1.0000
vt 10.3174 0.000
vt 10.3174 1.0000
vt 10.4174 0.000
vt 10.4174 1.0000
vt 20.7347 0.000
vt 20.7347 1.0000
vt 0.000 0.000
vt 0.000 1.0000
vt 0.7106 0.000
vt 0.7106 1.0000
vt 0.8106 0.000
vt 0.8106 1.0000
vt 1.5212 0.000
vt 1.5212 1.0000
vt 0.000 0.000
vt 0.000 1.0000
vt 17.2102 0.000
vt 17.2102 1.0000
vt 17.3102 0.000
vt 17.3102 1.0000
vt 34.5204 0.000
vt 34.5204 1.0000
vt 0.000 0.000
vt 0.000 1.0000
vt 0.7459 0.000
vt 0.7459 1.0000
vt 0.8459 0.000
vt 0.8459 1.0000
vt 1.5917 0.000
vt 1.5917 1.0000
vt 0.000 0.000
vt 0.000 1.0000
vt 1.0950 0.000
vt 1.0950 1.0000
vt 1.1950 0.000
vt 1.1950 1.0000
vt 2.2900 0.000
vt 2.2900 1.0000
vn 0.0000 0.0000 1.0000
vn -0.9475 0.3196 0.0000
vn -0.3196 -0.9475 0.0000
vn 0.9475 -0.3196 0.0000
vn 0.3196 0.9475 0.0000
vn 0.2974 0.9547 0.0000
vn -0.9547 0.2974 0.0000
vn -0.2974 -0.9547 0.0000
vn 0.9547 -0.2974 0.0000
vn 0.9444 -0.3288 0.0000
vn 0.3288 0.9444 0.0000
vn -0.9444 0.3288 0.0000
vn -0.3288 -0.9444 0.0000
vn 0.8106 0.5856 0.0000
vn -0.5856 0.8106 0.0000
vn -0.8106 -0.5856 0.0000
vn 0.5856 -0.8106 0.0000
vn 0.5500 -0.8352 0.0000
vn 0.8352 0.5500 0.0000
vn -0.5500 0.8352 0.0000
vn -0.8352 -0.5500 0.0000
vn 0.8190 0.5738 0.0000
vn -0.5738 0.8190 0.0000
vn -0.8190 -0.5738 0.0000
vn 0.5738 -0.8190 0.0000
vn -0.5981 0.8015 0.0000
vn -0.8015 -0.5981 0.0000
vn 0.5981 -0.8015 0.0000
vn 0.8015 0.5981 0.0000
vn 0.7948 0.6069 0.0000
vn -0.6069 0.7948 0.0000
vn -0.7948 -0.6069 0.0000
vn 0.6069 -0.7948 0.0000
vn 0.0020 1.0000 0.0000
vn -1.0000 0.0020 0.0000
vn -0.0020 -1.0000 0.0000
vn 1.0000 -0.0020 0.0000
vn 0.9998 0.0214 0.0000
vn -0.0214 0.9998 0.0000
vn -0.9998 -0.0214 0.0000
vn 0.0214 -0.9998 0.0000
vn -0.0001 -1.0000 0.0000
vn 1.0000 -0.0001 0.0000
vn 0.0001 1.0000 0.0000
vn -1.0000 0.0001 0.0000
vn -0.8287 -0.5596 0.0000
vn 0.5596 -0.8287 0.0000
vn 0.8287 0.5596 0.0000
vn -0.5596 0.8287 0.0000
vn 0.0003 1.0000 0.0000
vn -1.0000 0.0003 0.0000
vn -0.0003 -1.0000 0.0000
vn 1.0000 -0.0003 0.0000
vn 1.0000 -0.0003 0.0000
vn 0.0003 1.0000 0.0000
vn -1.0000 0.0003 0.0000
vn -0.0003 -1.0000 0.0000
vn 0.0003 1.0000 0.0000
vn -1.0000 0.0003 0.0000
vn -0.0003 -1.0000 0.0000
vn 1.0000 -0.0003 0.0000
vn 1.0000 -0.0003 0.0000
vn 0.0003 1.0000 0.0000
vn -1.0000 0.0003 0.0000
vn -0.0003 -1.0000 0.0000
vn 0.0003 1.0000 0.0000
vn -1.0000 0.0003 0.0000
vn -0.0003 -1.0000 0.0000
vn 1.0000 -0.0003 0.0000
vn -1.0000 0.0003 0.0000
vn -0.0003 -1.0000 0.0000
vn 1.0000 -0.0003 0.0000
vn 0.0003 1.0000 0.0000
vn -0.0003 -1.0000 0.0000
vn 1.0000 -0.0003 0.0000
vn 0.0003 1.0000 0.0000
vn -1.0000 0.0003 0.0000
vn -1.0000 0.0003 0.0000
vn -0.0003 -1.0000 0.0000
vn 1.0000 -0.0003 0.0000
vn 0.0003 1.0000 0.0000
vn -0.0003 -1.0000 0.0000
vn 1.0000 -0.0003 0.0000
vn 0.0003 1.0000 0.0000
vn -1.0000 0.0003 0.0000
vn -1.0000 0.0003 0.0000
vn -0.0003 -1.0000 0.0000
vn 1.0000 -0.0003 0.0000
vn 0.0003 1.0000 0.0000
vn -1.0000 0.0003 0.0000
vn -0.0003 -1.0000 0.0000
vn 1.0000 -0.0003 0.0000
vn 0.0003 1.0000 0.0000
vn -0.0003 -1.0000 0.0000
vn 1.0000 -0.0003 0.0000
vn 0.0003 1.0000 0.0000
vn -1.0000 0.0003 0.0000
vn 0.9356 -0.3531 0.0000
vn 0.3531 0.9356 0.0000
vn -0.9356 0.3531 0.0000
vn -0.3531 -0.9356 0.0000
vn 0.2111 0.9775 0.0000
vn -0.9775 0.2111 0.0000
vn -0.2111 -0.9775 0.0000
vn 0.9775 -0.2111 0.0000
vn -0.9437 0.3308 0.0000
vn -0.3308 -0.9437 0.0000
vn 0.9437 -0.3308 0.0000
vn 0.3308 0.9437 0.0000
vn 0.0003 1.0000 0.0000
vn -1.0000 0.0003 0.0000
vn -0.0003 -1.0000 0.0000
vn 1.0000 -0.0003 0.0000
vn 1.0000 -0.0003 0.0000
vn 0.0003 1.0000 0.0000
vn -1.0000 0.0003 0.0000
vn -0.0003 -1.0000 0.0000
vn 0.0003 1.0000 0.0000
vn -1.0000 0.0003 0.0000
vn -0.0003 -1.0000 0.0000
vn 1.0000 -0.0003 0.0000
vn -1.0000 0.0003 0.0000
vn -0.0003 -1.0000 0.0000
vn 1.0000 -0.0003 0.0000
vn 0.0003 1.0000 0.0000
vn 0.0003 1.0000 0.0000
vn -1.0000 0.0003 0.0000
vn -0.0003 -1.0000 0.0000
vn 1.0000 -0.0003 0.0000
vn 1.0000 -0.0003 0.0000
vn 0.0003 1.0000 0.0000
vn -1.0000 0.0003 0.0000
vn -0.0003 -1.0000 0.0000
vn 0.0003 1.0000 0.0000
vn -1.0000 0.0003 0.0000
vn -0.0003 -1.0000 0.0000
vn 1.0000 -0.0003 0.0000
vn 1.0000 -0.0003 0.0000
vn 0.0003 1.0000 0.0000
vn -1.0000 0.0003 0.0000
vn -0.0003 -1.0000 0.0000
vn -0.0003 -1.0000 0.0000
vn 1.0000 -0.0003 0.0000
vn 0.0003 1.0000 0.0000
vn -1.0000 0.0003 0.0000
vn -0.9435 0.3314 0.0000
vn -0.3314 -0.9435 0.0000
vn 0.9435 -0.3314 0.0000
vn 0.3314 0.9435 0.0000
vn -0.2840 -0.9588 0.0000
vn 0.9588 -0.2840 0.0000
vn 0.2840 0.9588 0.0000
vn -0.9588 0.2840 0.0000
vn -0.9544 0.2986 0.0000
vn -0.2986 -0.9544 0.0000
vn 0.9544 -0.2986 0.0000
vn 0.2986 0.9544 0.0000
vn 0.9479 -0.3185 0.0000
vn 0.3185 0.9479 0.0000
vn -0.9479 0.3185 0.0000
vn -0.3185 -0.9479 0.0000
vn 0.3826 0.9239 0.0000
vn -0.9239 0.3826 0.0000
vn -0.3826 -0.9239 0.0000
vn 0.9239 -0.3826 0.0000
vn -0.9403 0.3404 0.0000
vn -0.3404 -0.9403 0.0000
vn 0.9403 -0.3404 0.0000
vn 0.3404 0.9403 0.0000
vn 0.9575 -0.2885 0.0000
vn 0.2885 0.9575 0.0000
vn -0.9575 0.2885 0.0000
vn -0.2885 -0.9575 0.0000
vn 1.0000 -0.0003 0.0000
vn 0.0003 1.0000 0.0000
vn -1.0000 0.0003 0.0000
vn -0.0003 -1.0000 0.0000
vn 1.0000 -0.0003 0.0000
vn 0.0003 1.0000 0.0000
vn -1.0000 0.0003 0.0000
vn -0.0003 -1.0000 0.0000
vn 0.0109 -0.9999 0.0000
vn 0.9999 0.0109 0.0000
vn -0.0109 0.9999 0.0000
vn -0.9999 -0.0109 0.0000
vn 0.0003 1.0000 0.0000
vn -1.0000 0.0003 0.0000
vn -0.0003 -1.0000 0.0000
vn 1.0000 -0.0003 0.0000
vn -1.0000 0.0003 0.0000
vn -0.0003 -1.0000 0.0000
vn 1.0000 -0.0003 0.0000
vn 0.0003 1.0000 0.0000
vn 0.0003 1.0000 0.0000
vn -1.0000 0.0003 0.0000
vn -0.0003 -1.0000 0.0000
vn 1.0000 -0.0003 0.0000
vn 1.0000 -0.0003 0.0000
vn 0.0003 1.0000 0.0000
vn -1.0000 0.0003 0.0000
vn -0.0003 -1.0000 0.0000
vn 0.0003 1.0000 0.0000
vn -1.0000 0.0003 0.0000
vn -0.0003 -1.0000 0.0000
vn 1.0000 -0.0003 0.0000
vn 1.0000 -0.0003 0.0000
vn 0.0003 1.0000 0.0000
vn -1.0000 0.0003 0.0000
vn -0.0003 -1.0000 0.0000
vn 0.0003 1.0000 0.0000
vn -1.0000 0.0003 0.0000
vn -0.0003 -1.0000 0.0000
vn 1.0000 -0.0003 0.0000
vn 1.0000 -0.0003 0.0000
vn 0.0003 1.0000 0.0000
vn -1.0000 0.0003 0.0000
vn -0.0003 -1.0000 0.0000
vn -1.0000 0.0003 0.0000
vn -0.0003 -1.0000 0.0000
vn 1.0000 -0.0003 0.0000
vn 0.0003 1.0000 0.0000
vn 0.0003 1.0000 0.0000
vn -1.0000 0.0003 0.0000
vn -0.0003 -1.0000 0.0000
vn 1.0000 -0.0003 0.0000
vn -1.0000 0.0003 0.0000
vn -0.0003 -1.0000 0.0000
vn 1.0000 -0.0003 0.0000
vn 0.0003 1.0000 0.0000
vn 0.0003 1.0000 0.0000
vn -1.0000 0.0003 0.0000
vn -0.0003 -1.0000 0.0000
vn 1.0000 -0.0003 0.0000
vn 1.0000 -0.0003 0.0000
vn 0.0003 1.0000 0.0000
vn -1.0000 0.0003 0.0000
vn -0.0003 -1.0000 0.0000
vn 0.0003 1.0000 0.0000
vn -1.0000 0.0003 0.0000
vn -0.0003 -1.0000 0.0000
vn 1.0000 -0.0003 0.0000
vn 1.0000 -0.0003 0.0000
vn 0.0003 1.0000 0.0000
vn -1.0000 0.0003 0.0000
vn -0.0003 -1.0000 0.0000
vn 0.0003 1.0000 0.0000
vn -1.0000 0.0003 0.0000
vn -0.0003 -1.0000 0.0000
vn 1.0000 -0.0003 0.0000
vn -0.0003 -1.0000 0.0000
vn 1.0000 -0.0003 0.0000
vn 0.0003 1.0000 0.0000
vn -1.0000 0.0003 0.0000
vn 1.0000 -0.0003 0.0000
vn 0.0003 1.0000 0.0000
vn -1.0000 0.0003 0.0000
vn -0.0003 -1.0000 0.0000
vn 0.0003 1.0000 0.0000
vn -1.0000 0.0003 0.0000
vn -0.0003 -1.0000 0.0000
vn 1.0000 -0.0003 0.0000
vn -1.0000 0.0003 0.0000
vn -0.0003 -1.0000 0.0000
vn 1.0000 -0.0003 0.0000
vn 0.0003 1.0000 0.0000
vn -0.0308 0.9995 0.0000
vn -0.9995 -0.0308 0.0000
vn 0.0308 -0.9995 0.0000
vn 0.9995 0.0308 0.0000
vn -0.0003 -1.0000 0.0000
vn 1.0000 -0.0003 0.0000
vn 0.0003 1.0000 0.0000
vn -1.0000 0.0003 0.0000
vn 0.7681 -0.6404 0.0000
vn 0.6404 0.7681 0.0000
vn -0.7681 0.6404 0.0000
vn -0.6404 -0.7681 0.0000
vn 0.0003 1.0000 0.0000
vn -1.0000 0.0003 0.0000
vn -0.0003 -1.0000 0.0000
vn 1.0000 -0.0003 0.0000
vn 0.2748 0.9615 0.0000
vn -0.9615 0.2748 0.0000
vn -0.2748 -0.9615 0.0000
vn 0.9615 -0.2748 0.0000
vn 0.9998 0.0207 0.0000
vn -0.0207 0.9998 0.0000
vn -0.9998 -0.0207 0.0000
vn 0.0207 -0.9998 0.0000
usemtl wall_1
s off
g walls
f 1/1/2 2/2/2 3/3/2
f 4/4/2 3/3/2 2/2/2
f 3/3/3 4/4/3 5/5/3
f 6/6/3 5/5/3 4/4/3
f 5/5/4 6/6/4 7/7/4
f 8/8/4 7/7/4 6/6/4
f 7/7/5 8/8/5 1/1/5
f 2/2/5 1/1/5 8/8/5
f 2/1/1 6/1/1 4/1/1
f 2/1/1 8/1/1 6/1/1
f 9/9/6 10/10/6 11/11/6
f 12/12/6 11/11/6 10/10/6
f 11/11/7 12/12/7 13/13/7
f 14/14/7 13/13/7 12/12/7
f 13/13/8 14/14/8 15/15/8
f 16/16/8 15/15/8 14/14/8
f 15/15/9 16/16/9 9/9/9
f 10/10/9 9/9/9 16/16/9
f 10/1/1 14/1/1 12/1/1
f 10/1/1 16/1/1 14/1/1
f 17/17/10 18/18/10 19/19/10
f 20/20/10 19/19/10 18/18/10
f 19/19/11 20/20/11 21/21/11
f 22/22/11 21/21/11 20/20/11
f 21/21/12 22/22/12 23/23/12
f 24/24/12 23/23/12 22/22/12
f 23/23/13 24/24/13 17/17/13
f 18/18/13 17/17/13 24/24/13
f 18/1/1 22/1/1 20/1/1
f 18/1/1 24/1/1 22/1/1
f 25/25/14 26/26/14 27/27/14
f 28/28/14 27/27/14 26/26/14
f 27/27/15 28/28/15 29/29/15
f 30/30/15 29/29/15 28/28/15
f 29/29/16 30/30/16 31/31/16
f 32/32/16 31/31/16 30/30/16
f 31/31/17 32/32/17 25/25/17
f 26/26/17 25/25/17 32/32/17
f 26/1/1 30/1/1 28/1/1
f 26/1/1 32/1/1 30/1/1
f 33/33/18 34/34/18 35/35/18
f 36/36/18 35/35/18 34/34/18
f 35/35/19 36/36/19 37/37/19
f 38/38/19 37/37/19 36/36/19
f 37/37/20 38/38/20 39/39/20
f 40/40/20 39/39/20 38/38/20
f 39/39/21 40/40/21 33/33/21
f 34/34/21 33/33/21 40/40/21
f 34/1/1 38/1/1 36/1/1
f 34/1/1 40/1/1 38/1/1
f 41/41/22 42/42/22 43/43/22
f 44/44/22 43/43/22 42/42/22
f 43/43/23 44/44/23 45/45/23
f 46/46/23 45/45/23 44/44/23
f 45/45/24 46/46/24 47/47/24
f 48/48/24 47/47/24 46/46/24
f 47/47/25 48/48/25 41/41/25
f 42/42/25 41/41/25 48/48/25
f 42/1/1 46/1/1 44/1/1
f 42/1/1 48/1/1 46/1/1
f 49/49/26 50/50/26 51/51/26
f 52/52/26 51/51/26 50/50/26
f 51/51/27 52/52/27 53/53/27
f 54/54/27 53/53/27 52/52/27
f 53/53/28 54/54/28 55/55/28
f 56/56/28 55/55/28 54/54/28
f 55/55/29 56/56/29 49/49/29
f 50/50/29 49/49/29 56/56/29
f 50/1/1 54/1/1 52/1/1
f 50/1/1 56/1/1 54/1/1
f 57/57/30 58/58/30 59/59/30
f 60/60/30 59/59/30 58/58/30
f 59/59/31 60/60/31 61/61/31
f 62/62/31 61/61/31 60/60/31
f 61/61/32 62/62/32 63/63/32
f 64/64/32 63/63/32 62/62/32
f 63/63/33 64/64/33 57/57/33
f 58/58/33 57/57/33 64/64/33
f 58/1/1 62/1/1 60/1/1
f 58/1/1 64/1/1 62/1/1
f 65/65/34 66/66/34 67/67/34
f 68/68/34 67/67/34 66/66/34
f 67/67/35 68/68/35 69/69/35
f 70/70/35 69/69/35 68/68/35
f 69/69/36 70/70/36 71/71/36
f 72/72/36 71/71/36 70/70/36
f 71/71/37 72/72/37 65/65/37
f 66/66/37 65/65/37 72/72/37
f 66/1/1 70/1/1 68/1/1
f 66/1/1 72/1/1 70/1/1
f 73/73/38 74/74/38 75/75/38
f 76/76/38 75/75/38 74/74/38
f 75/75/39 76/76/39 77/77/39
f 78/78/39 77/77/39 76/76/39
f 77/77/40 78/78/40 79/79/40
f 80/80/40 79/79/40 78/78/40
f 79/79/41 80/80/41 73/73/41
f 74/74/41 73/73/41 80/80/41
f 74/1/1 78/1/1 76/1/1
f 74/1/1 80/1/1 78/1/1
f 81/81/42 82/82/42 83/83/42
f 84/84/42 83/83/42 82/82/42
f 83/83/43 84/84/43 85/85/43
f 86/86/43 85/85/43 84/84/43
f 85/85/44 86/86/44 87/87/44
f 88/88/44 87/87/44 86/86/44
f 87/87/45 88/88/45 81/81/45
f 82/82/45 81/81/45 88/88/45
f 82/1/1 86/1/1 84/1/1
f 82/1/1 88/1/1 86/1/1
f 89/89/46 90/90/46 91/91/46
f 92/92/46 91/91/46 90/90/46
f 91/91/47 92/92/47 93/93/47
f 94/94/47 93/93/47 92/92/47
f 93/93/48 94/94/48 95/95/48
f 96/96/48 95/95/48 94/94/48
f 95/95/49 96/96/49 89/89/49
f 90/90/49 89/89/49 96/96/49
f 90/1/1 94/1/1 92/1/1
f 90/1/1 96/1/1 94/1/1
f 97/97/50 98/98/50 99/99/50
f 100/100/50 99/99/50 98/98/50
f 99/99/51 100/100/51 101/101/51
f 102/102/51 101/101/51 100/100/51
f 101/101/52 102/102/52 103/103/52
f 104/104/52 103/103/52 102/102/52
f 103/103/53 104/104/53 97/97/53
f 98/98/53 97/97/53 104/104/53
f 98/1/1 102/1/1 100/1/1
f 98/1/1 104/1/1 102/1/1
f 105/105/54 106/106/54 107/107/54
f 108/108/54 107/107/54 106/106/54
f 107/107/55 108/108/55 109/109/55
f 110/110/55 109/109/55 108/108/55
f 109/109/56 110/110/56 111/111/56
f 112/112/56 111/111/56 110/110/56
f 111/111/57 112/112/57 105/105/57
f 106/106/57 105/105/57 112/112/57
f 106/1/1 110/1/1 108/1/1
f 106/1/1 112/1/1 110/1/1
f 113/113/58 114/114/58 115/115/58
f 116/116/58 115/115/58 114/114/58
f 115/115/59 116/116/59 117/117/59
f 118/118/59 117/117/59 116/116/59
f 117/117/60 118/118/60 119/119/60
f 120/120/60 119/119/60 118/118/60
f 119/119/61 120/120/61 113/113/61
f 114/114/61 113/113/61 120/120/61
f 114/1/1 118/1/1 116/1/1
f 114/1/1 120/1/1 118/1/1
f 121/121/62 122/122/62 123/123/62
f 124/124/62 123/123/62 122/122/62
f 123/123/63 124/124/63 125/125/63
f 126/126/63 125/125/63 124/124/63
f 125/125/64 126/126/64 127/127/64
f 128/128/64 127/127/64 126/126/64
f 127/127/65 128/128/65 121/121/65
f 122/122/65 121/121/65 128/128/65
f 122/1/1 126/1/1 124/1/1
f 122/1/1 128/1/1 126/1/1
f 129/129/66 130/130/66 131/131/66
f 132/132/66 131/131/66 130/130/66
f 131/131/67 132/132/67 133/133/67
f 134/134/67 133/133/67 132/132/67
f 133/133/68 134/134/68 135/135/68
f 136/136/68 135/135/68 134/134/68
f 135/135/69 136/136/69 129/129/69
f 130/130/69 129/129/69 136/136/69
f 130/1/1 134/1/1 132/1/1
f 130/1/1 136/1/1 134/1/1
f 137/137/70 138/138/70 139/139/70
f 140/140/70 139/139/70 138/138/70
f 139/139/71 140/140/71 141/141/71
f 142/142/71 141/141/71 140/140/71
f 141/141/72 142/142/72 143/143/72
f 144/144/72 143/143/72 142/142/72
f 143/143/73 144/144/73 137/137/73
f 138/138/73 137/137/73 144/144/73
f 138/1/1 142/1/1 140/1/1
f 138/1/1 144/1/1 142/1/1
f 145/145/74 146/146/74 147/147/74
f 148/148/74 147/147/74 146/146/74
f 147/147/75 148/148/75 149/149/75
f 150/150/75 149/149/75 148/148/75
f 149/149/76 150/150/76 151/151/76
f 152/152/76 151/151/76 150/150/76
f 151/151/77 152/152/77 145/145/77
f 146/146/77 145/145/77 152/152/77
f 146/1/1 150/1/1 148/1/1
f 146/1/1 152/1/1 150/1/1
f 153/153/78 154/154/78 155/155/78
f 156/156/78 155/155/78 154/154/78
f 155/155/79 156/156/79 157/157/79
f 158/158/79 157/157/79 156/156/79
f 157/157/80 158/158/80 159/159/80
f 160/160/80 159/159/80 158/158/80
f 159/159/81 160/160/81 153/153/81
f 154/154/81 153/153/81 160/160/81
f 154/1/1 158/1/1 156/1/1
f 154/1/1 160/1/1 158/1/1
f 161/161/82 162/162/82 163/163/82
f 164/164/82 163/163/82 162/162/82
f 163/163/83 164/164/83 165/165/83
f 166/166/83 165/165/83 164/164/83
f 165/165/84 166/166/84 167/167/84
f 168/168/84 167/167/84 166/166/84
f 167/167/85 168/168/85 161/161/85
f 162/162/85 161/161/85 168/168/85
f 162/1/1 166/1/1 164/1/1
f 162/1/1 168/1/1 166/1/1
f 169/169/86 170/170/86 171/171/86
f 172/172/86 171/171/86 170/170/86
f 171/171/87 172/172/87 173/173/87
f 174/174/87 173/173/87 172/172/87
f 173/173/88 174/174/88 175/175/88
f 176/176/88 175/175/88 174/174/88
f 175/175/89 176/176/89 169/169/89
f 170/170/89 169/169/89 176/176/89
f 170/1/1 174/1/1 172/1/1
f 170/1/1 176/1/1 174/1/1
f 177/177/90 178/178/90 179/179/90
f 180/180/90 179/179/90 178/178/90
f 179/179/91 180/180/91 181/181/91
f 182/182/91 181/181/91 180/180/91
f 181/181/92 182/182/92 183/183/92
f 184/184/92 183/183/92 182/182/92
f 183/183/93 184/184/93 177/177/93
f 178/178/93 177/177/93 184/184/93
f 178/1/1 182/1/1 180/1/1
f 178/1/1 184/1/1 182/1/1
f 185/185/94 186/186/94 187/187/94
f 188/188/94 187/187/94 186/186/94
f 187/187/95 188/188/95 189/189/95
f 190/190/95 189/189/95 188/188/95
f 189/189/96 190/190/96 191/191/96
f 192/192/96 191/191/96 190/190/96
f 191/191/97 192/192/97 185/185/97
f 186/186/97 185/185/97 192/192/97
f 186/1/1 190/1/1 188/1/1
f 186/1/1 192/1/1 190/1/1
f 193/193/98 194/194/98 195/195/98
f 196/196/98 195/195/98 194/194/98
f 195/195/99 196/196/99 197/197/99
f 198/198/99 197/197/99 196/196/99
f 197/197/100 198/198/100 199/199/100
f 200/200/100 199/199/100 198/198/100
f 199/199/101 200/200/101 193/193/101
f 194/194/101 193/193/101 200/200/101
f 194/1/1 198/1/1 196/1/1
f 194/1/1 200/1/1 198/1/1
f 201/201/102 202/202/102 203/203/102
f 204/204/102 203/203/102 202/202/102
f 203/203/103 204/204/103 205/205/103
f 206/206/103 205/205/103 204/204/103
f 205/205/104 206/206/104 207/207/104
f 208/208/104 207/207/104 206/206/104
f 207/207/105 208/208/105 201/201/105
f 202/202/105 201/201/105 208/208/105
f 202/1/1 206/1/1 204/1/1
f 202/1/1 208/1/1 206/1/1
f 209/209/106 210/210/106 211/211/106
f 212/212/106 211/211/106 210/210/106
f 211/211/107 212/212/107 213/213/107
f 214/214/107 213/213/107 212/212/107
f 213/213/108 214/214/108 215/215/108
f 216/216/108 215/215/108 214/214/108
f 215/215/109 216/216/109 209/209/109
f 210/210/109 209/209/109 216/216/109
f 210/1/1 214/1/1 212/1/1
f 210/1/1 216/1/1 214/1/1
f 217/217/110 218/218/110 219/219/110
f 220/220/110 219/219/110 218/218/110
f 219/219/111 220/220/111 221/221/111
f 222/222/111 221/221/111 220/220/111
f 221/221/112 222/222/112 223/223/112
f 224/224/112 223/223/112 222/222/112
f 223/223/113 224/224/113 217/217/113
f 218/218/113 217/217/113 224/224/113
f 218/1/1 222/1/1 220/1/1
f 218/1/1 224/1/1 222/1/1
f 225/225/114 226/226/114 227/227/114
f 228/228/114 227/227/114 226/226/114
f 227/227/115 228/228/115 229/229/115
f 230/230/115 229/229/115 228/228/115
f 229/229/116 230/230/116 231/231/116
f 232/232/116 231/231/116 230/230/116
f 231/231/117 232/232/117 225/225/117
f 226/226/117 225/225/117 232/232/117
f 226/1/1 230/1/1 228/1/1
f 226/1/1 232/1/1 230/1/1
f 233/233/118 234/234/118 235/235/118
f 236/236/118 235/235/118 234/234/118
f 235/235/119 236/236/119 237/237/119
f 238/238/119 237/237/119 236/236/119
f 237/237/120 238/238/120 239/239/120
f 240/240/120 239/239/120 238/238/120
f 239/239/121 240/240/121 233/233/121
f 234/234/121 233/233/121 240/240/121
f 234/1/1 238/1/1 236/1/1
f 234/1/1 240/1/1 238/1/1
f 241/241/122 242/242/122 243/243/122
f 244/244/122 243/243/122 242/242/122
f 243/243/123 244/244/123 245/245/123
f 246/246/123 245/245/123 244/244/123
f 245/245/124 246/246/124 247/247/124
f 248/248/124 247/247/124 246/246/124
f 247/247/125 248/248/125 241/241/125
f 242/242/125 241/241/125 248/248/125
f 242/1/1 246/1/1 244/1/1
f 242/1/1 248/1/1 246/1/1
f 249/249/126 250/250/126 251/251/126
f 252/252/126 251/251/126 250/250/126
f 251/251/127 252/252/127 253/253/127
f 254/254/127 253/253/127 252/252/127
f 253/253/128 254/254/128 255/255/128
f 256/256/128 255/255/128 254/254/128
f 255/255/129 256/256/129 249/249/129
f 250/250/129 249/249/129 256/256/129
f 250/1/1 254/1/1 252/1/1
f 250/1/1 256/1/1 254/1/1
f 257/257/130 258/258/130 259/259/130
f 260/260/130 259/259/130 258/258/130
f 259/259/131 260/260/131 261/261/131
f 262/262/131 261/261/131 260/260/131
f 261/261/132 262/262/132 263/263/132
f 264/264/132 263/263/132 262/262/132
f 263/263/133 264/264/133 257/257/133
f 258/258/133 257/257/133 264/264/133
f 258/1/1 262/1/1 260/1/1
f 258/1/1 264/1/1 262/1/1
f 265/265/134 266/266/134 267/267/134
f 268/268/134 267/267/134 266/266/134
f 267/267/135 268/268/135 269/269/135
f 270/270/135 269/269/135 268/268/135
f 269/269/136 270/270/136 271/271/136
f 272/272/136 271/271/136 270/270/136
f 271/271/137 272/272/137 265/265/137
f 266/266/137 265/265/137 272/272/137
f 266/1/1 270/1/1 268/1/1
f 266/1/1 272/1/1 270/1/1
f 273/273/138 274/274/138 275/275/138
f 276/276/138 275/275/138 274/274/138
f 275/275/139 276/276/139 277/277/139
f 278/278/139 277/277/139 276/276/139
f 277/277/140 278/278/140 279/279/140
f 280/280/140 279/279/140 278/278/140
f 279/279/141 280/280/141 273/273/141
f 274/274/141 273/273/141 280/280/141
f 274/1/1 278/1/1 276/1/1
f 274/1/1 280/1/1 278/1/1
f 281/281/142 282/282/142 283/283/142
f 284/284/142 283/283/142 282/282/142
f 283/283/143 284/284/143 285/285/143
f 286/286/143 285/285/143 284/284/143
f 285/285/144 286/286/144 287/287/144
f 288/288/144 287/287/144 286/286/144
f 287/287/145 288/288/145 281/281/145
f 282/282/145 281/281/145 288/288/145
f 282/1/1 286/1/1 284/1/1
f 282/1/1 288/1/1 286/1/1
f 289/289/146 290/290/146 291/291/146
f 292/292/146 291/291/146 290/290/146
f 291/291/147 292/292/147 293/293/147
f 294/294/147 293/293/147 292/292/147
f 293/293/148 294/294/148 295/295/148
f 296/296/148 295/295/148 294/294/148
f 295/295/149 296/296/149 289/289/149
f 290/290/149 289/289/149 296/296/149
f 290/1/1 294/1/1 292/1/1
f 290/1/1 296/1/1 294/1/1
f 297/297/150 298/298/150 299/299/150
f 300/300/150 299/299/150 298/298/150
f 299/299/151 300/300/151 301/301/151
f 302/302/151 301/301/151 300/300/151
f 301/301/152 302/302/152 303/303/152
f 304/304/152 303/303/152 302/302/152
f 303/303/153 304/304/153 297/297/153
f 298/298/153 297/297/153 304/304/153
f 298/1/1 302/1/1 300/1/1
f 298/1/1 304/1/1 302/1/1
f 305/305/154 306/306/154 307/307/154
f 308/308/154 307/307/154 306/306/154
f 307/307/155 308/308/155 309/309/155
f 310/310/155 309/309/155 308/308/155
f 309/309/156 310/310/156 311/311/156
f 312/312/156 311/311/156 310/310/156
f 311/311/157 312/312/157 305/305/157
f 306/306/157 305/305/157 312/312/157
f 306/1/1 310/1/1 308/1/1
f 306/1/1 312/1/1 310/1/1
f 313/313/158 314/314/158 315/315/158
f 316/316/158 315/315/158 314/314/158
f 315/315/159 316/316/159 317/317/159
f 318/318/159 317/317/159 316/316/159
f 317/317/160 318/318/160 319/319/160
f 320/320/160 319/319/160 318/318/160
f 319/319/161 320/320/161 313/313/161
f 314/314/161 313/313/161 320/320/161
f 314/1/1 318/1/1 316/1/1
f 314/1/1 320/1/1 318/1/1
f 321/321/162 322/322/162 323/323/162
f 324/324/162 323/323/162 322/322/162
f 323/323/163 324/324/163 325/325/163
f 326/326/163 325/325/163 324/324/163
f 325/325/164 326/326/164 327/327/164
f 328/328/164 327/327/164 326/326/164
f 327/327/165 328/328/165 321/321/165
f 322/322/165 321/321/165 328/328/165
f 322/1/1 326/1/1 324/1/1
f 322/1/1 328/1/1 326/1/1
f 329/329/166 330/330/166 331/331/166
f 332/332/166 331/331/166 330/330/166
f 331/331/167 332/332/167 333/333/167
f 334/334/167 333/333/167 332/332/167
f 333/333/168 334/334/168 335/335/168
f 336/336/168 335/335/168 334/334/168
f 335/335/169 336/336/169 329/329/169
f 330/330/169 329/329/169 336/336/169
f 330/1/1 334/1/1 332/1/1
f 330/1/1 336/1/1 334/1/1
f 337/337/170 338/338/170 339/339/170
f 340/340/170 339/339/170 338/338/170
f 339/339/171 340/340/171 341/341/171
f 342/342/171 341/341/171 340/340/171
f 341/341/172 342/342/172 343/343/172
f 344/344/172 343/343/172 342/342/172
f 343/343/173 344/344/173 337/337/173
f 338/338/173 337/337/173 344/344/173
f 338/1/1 342/1/1 340/1/1
f 338/1/1 344/1/1 342/1/1
f 345/345/174 346/346/174 347/347/174
f 348/348/174 347/347/174 346/346/174
f 347/347/175 348/348/175 349/349/175
f 350/350/175 349/349/175 348/348/175
f 349/349/176 350/350/176 351/351/176
f 352/352/176 351/351/176 350/350/176
f 351/351/177 352/352/177 345/345/177
f 346/346/177 345/345/177 352/352/177
f 346/1/1 350/1/1 348/1/1
f 346/1/1 352/1/1 350/1/1
f 353/353/178 354/354/178 355/355/178
f 356/356/178 355/355/178 354/354/178
f 355/355/179 356/356/179 357/357/179
f 358/358/179 357/357/179 356/356/179
f 357/357/180 358/358/180 359/359/180
f 360/360/180 359/359/180 358/358/180
f 359/359/181 360/360/181 353/353/181
f 354/354/181 353/353/181 360/360/181
f 354/1/1 358/1/1 356/1/1
f 354/1/1 360/1/1 358/1/1
f 361/361/182 362/362/182 363/363/182
f 364/364/182 363/363/182 362/362/182
f 363/363/183 364/364/183 365/365/183
f 366/366/183 365/365/183 364/364/183
f 365/365/184 366/366/184 367/367/184
f 368/368/184 367/367/184 366/366/184
f 367/367/185 368/368/185 361/361/185
f 362/362/185 361/361/185 368/368/185
f 362/1/1 366/1/1 364/1/1
f 362/1/1 368/1/1 366/1/1
f 369/369/186 370/370/186 371/371/186
f 372/372/186 371/371/186 370/370/186
f 371/371/187 372/372/187 373/373/187
f 374/374/187 373/373/187 372/372/187
f 373/373/188 374/374/188 375/375/188
f 376/376/188 375/375/188 374/374/188
f 375/375/189 376/376/189 369/369/189
f 370/370/189 369/369/189 376/376/189
f 370/1/1 374/1/1 372/1/1
f 370/1/1 376/1/1 374/1/1
f 377/377/190 378/378/190 379/379/190
f 380/380/190 379/379/190 378/378/190
f 379/379/191 380/380/191 381/381/191
f 382/382/191 381/381/191 380/380/191
f 381/381/192 382/382/192 383/383/192
f 384/384/192 383/383/192 382/382/192
f 383/383/193 384/384/193 377/377/193
f 378/378/193 377/377/193 384/384/193
f 378/1/1 382/1/1 380/1/1
f 378/1/1 384/1/1 382/1/1
f 385/385/194 386/386/194 387/387/194
f 388/388/194 387/387/194 386/386/194
f 387/387/195 388/388/195 389/389/195
f 390/390/195 389/389/195 388/388/195
f 389/389/196 390/390/196 391/391/196
f 392/392/196 391/391/196 390/390/196
f 391/391/197 392/392/197 385/385/197
f 386/386/197 385/385/197 392/392/197
f 386/1/1 390/1/1 388/1/1
f 386/1/1 392/1/1 390/1/1
f 393/393/198 394/394/198 395/395/198
f 396/396/198 395/395/198 394/394/198
f 395/395/199 396/396/199 397/397/199
f 398/398/199 397/397/199 396/396/199
f 397/397/200 398/398/200 399/399/200
f 400/400/200 399/399/200 398/398/200
f 399/399/201 400/400/201 393/393/201
f 394/394/201 393/393/201 400/400/201
f 394/1/1 398/1/1 396/1/1
f 394/1/1 400/1/1 398/1/1
f 401/401/202 402/402/202 403/403/202
f 404/404/202 403/403/202 402/402/202
f 403/403/203 404/404/203 405/405/203
f 406/406/203 405/405/203 404/404/203
f 405/405/204 406/406/204 407/407/204
f 408/408/204 407/407/204 406/406/204
f 407/407/205 408/408/205 401/401/205
f 402/402/205 401/401/205 408/408/205
f 402/1/1 406/1/1 404/1/1
f 402/1/1 408/1/1 406/1/1
f 409/409/206 410/410/206 411/411/206
f 412/412/206 411/411/206 410/410/206
f 411/411/207 412/412/207 413/413/207
f 414/414/207 413/413/207 412/412/207
f 413/413/208 414/414/208 415/415/208
f 416/416/208 415/415/208 414/414/208
f 415/415/209 416/416/209 409/409/209
f 410/410/209 409/409/209 416/416/209
f 410/1/1 414/1/1 412/1/1
f 410/1/1 416/1/1 414/1/1
f 417/417/210 418/418/210 419/419/210
f 420/420/210 419/419/210 418/418/210
f 419/419/211 420/420/211 421/421/211
f 422/422/211 421/421/211 420/420/211
f 421/421/212 422/422/212 423/423/212
f 424/424/212 423/423/212 422/422/212
f 423/423/213 424/424/213 417/417/213
f 418/418/213 417/417/213 424/424/213
f 418/1/1 422/1/1 420/1/1
f 418/1/1 424/1/1 422/1/1
f 425/425/214 426/426/214 427/427/214
f 428/428/214 427/427/214 426/426/214
f 427/427/215 428/428/215 429/429/215
f 430/430/215 429/429/215 428/428/215
f 429/429/216 430/430/216 431/431/216
f 432/432/216 431/431/216 430/430/216
f 431/431/217 432/432/217 425/425/217
f 426/426/217 425/425/217 432/432/217
f 426/1/1 430/1/1 428/1/1
f 426/1/1 432/1/1 430/1/1
f 433/433/218 434/434/218 435/435/218
f 436/436/218 435/435/218 434/434/218
f 435/435/219 436/436/219 437/437/219
f 438/438/219 437/437/219 436/436/219
f 437/437/220 438/438/220 439/439/220
f 440/440/220 439/439/220 438/438/220
f 439/439/221 440/440/221 433/433/221
f 434/434/221 433/433/221 440/440/221
f 434/1/1 438/1/1 436/1/1
f 434/1/1 440/1/1 438/1/1
f 441/441/222 442/442/222 443/443/222
f 444/444/222 443/443/222 442/442/222
f 443/443/223 444/444/223 445/445/223
f 446/446/223 445/445/223 444/444/223
f 445/445/224 446/446/224 447/447/224
f 448/448/224 447/447/224 446/446/224
f 447/447/225 448/448/225 441/441/225
f 442/442/225 441/441/225 448/448/225
f 442/1/1 446/1/1 444/1/1
f 442/1/1 448/1/1 446/1/1
f 449/449/226 450/450/226 451/451/226
f 452/452/226 451/451/226 450/450/226
f 451/451/227 452/452/227 453/453/227
f 454/454/227 453/453/227 452/452/227
f 453/453/228 454/454/228 455/455/228
f 456/456/228 455/455/228 454/454/228
f 455/455/229 456/456/229 449/449/229
f 450/450/229 449/449/229 456/456/229
f 450/1/1 454/1/1 452/1/1
f 450/1/1 456/1/1 454/1/1
f 457/457/230 458/458/230 459/459/230
f 460/460/230 459/459/230 458/458/230
f 459/459/231 460/460/231 461/461/231
f 462/462/231 461/461/231 460/460/231
f 461/461/232 462/462/232 463/463/232
f 464/464/232 463/463/232 462/462/232
f 463/463/233 464/464/233 457/457/233
f 458/458/233 457/457/233 464/464/233
f 458/1/1 462/1/1 460/1/1
f 458/1/1 464/1/1 462/1/1
f 465/465/234 466/466/234 467/467/234
f 468/468/234 467/467/234 466/466/234
f 467/467/235 468/468/235 469/469/235
f 470/470/235 469/469/235 468/468/235
f 469/469/236 470/470/236 471/471/236
f 472/472/236 471/471/236 470/470/236
f 471/471/237 472/472/237 465/465/237
f 466/466/237 465/465/237 472/472/237
f 466/1/1 470/1/1 468/1/1
f 466/1/1 472/1/1 470/1/1
f 473/473/238 474/474/238 475/475/238
f 476/476/238 475/475/238 474/474/238
f 475/475/239 476/476/239 477/477/239
f 478/478/239 477/477/239 476/476/239
f 477/477/240 478/478/240 479/479/240
f 480/480/240 479/479/240 478/478/240
f 479/479/241 480/480/241 473/473/241
f 474/474/241 473/473/241 480/480/241
f 474/1/1 478/1/1 476/1/1
f 474/1/1 480/1/1 478/1/1
f 481/481/242 482/482/242 483/483/242
f 484/484/242 483/483/242 482/482/242
f 483/483/243 484/484/243 485/485/243
f 486/486/243 485/485/243 484/484/243
f 485/485/244 486/486/244 487/487/244
f 488/488/244 487/487/244 486/486/244
f 487/487/245 488/488/245 481/481/245
f 482/482/245 481/481/245 488/488/245
f 482/1/1 486/1/1 484/1/1
f 482/1/1 488/1/1 486/1/1
f 489/489/246 490/490/246 491/491/246
f 492/492/246 491/491/246 490/490/246
f 491/491/247 492/492/247 493/493/247
f 494/494/247 493/493/247 492/492/247
f 493/493/248 494/494/248 495/495/248
f 496/496/248 495/495/248 494/494/248
f 495/495/249 496/496/249 489/489/249
f 490/490/249 489/489/249 496/496/249
f 490/1/1 494/1/1 492/1/1
f 490/1/1 496/1/1 494/1/1
f 497/497/250 498/498/250 499/499/250
f 500/500/250 499/499/250 498/498/250
f 499/499/251 500/500/251 501/501/251
f 502/502/251 501/501/251 500/500/251
f 501/501/252 502/502/252 503/503/252
f 504/504/252 503/503/252 502/502/252
f 503/503/253 504/504/253 497/497/253
f 498/498/253 497/497/253 504/504/253
f 498/1/1 502/1/1 500/1/1
f 498/1/1 504/1/1 502/1/1
f 505/505/254 506/506/254 507/507/254
f 508/508/254 507/507/254 506/506/254
f 507/507/255 508/508/255 509/509/255
f 510/510/255 509/509/255 508/508/255
f 509/509/256 510/510/256 511/511/256
f 512/512/256 511/511/256 510/510/256
f 511/511/257 512/512/257 505/505/257
f 506/506/257 505/505/257 512/512/257
f 506/1/1 510/1/1 508/1/1
f 506/1/1 512/1/1 510/1/1
f 513/513/258 514/514/258 515/515/258
f 516/516/258 515/515/258 514/514/258
f 515/515/259 516/516/259 517/517/259
f 518/518/259 517/517/259 516/516/259
f 517/517/260 518/518/260 519/519/260
f 520/520/260 519/519/260 518/518/260
f 519/519/261 520/520/261 513/513/261
f 514/514/261 513/513/261 520/520/261
f 514/1/1 518/1/1 516/1/1
f 514/1/1 520/1/1 518/1/1
f 521/521/262 522/522/262 523/523/262
f 524/524/262 523/523/262 522/522/262
f 523/523/263 524/524/263 525/525/263
f 526/526/263 525/525/263 524/524/263
f 525/525/264 526/526/264 527/527/264
f 528/528/264 527/527/264 526/526/264
f 527/527/265 528/528/265 521/521/265
f 522/522/265 521/521/265 528/528/265
f 522/1/1 526/1/1 524/1/1
f 522/1/1 528/1/1 526/1/1
f 529/529/266 530/530/266 531/531/266
f 532/532/266 531/531/266 530/530/266
f 531/531/267 532/532/267 533/533/267
f 534/534/267 533/533/267 532/532/267
f 533/533/268 534/534/268 535/535/268
f 536/536/268 535/535/268 534/534/268
f 535/535/269 536/536/269 529/529/269
f 530/530/269 529/529/269 536/536/269
f 530/1/1 534/1/1 532/1/1
f 530/1/1 536/1/1 534/1/1
f 537/537/270 538/538/270 539/539/270
f 540/540/270 539/539/270 538/538/270
f 539/539/271 540/540/271 541/541/271
f 542/542/271 541/541/271 540/540/271
f 541/541/272 542/542/272 543/543/272
f 544/544/272 543/543/272 542/542/272
f 543/543/273 544/544/273 537/537/273
f 538/538/273 537/537/273 544/544/273
f 538/1/1 542/1/1 540/1/1
f 538/1/1 544/1/1 542/1/1
f 545/545/274 546/546/274 547/547/274
f 548/548/274 547/547/274 546/546/274
f 547/547/275 548/548/275 549/549/275
f 550/550/275 549/549/275 548/548/275
f 549/549/276 550/550/276 551/551/276
f 552/552/276 551/551/276 550/550/276
f 551/551/277 552/552/277 545/545/277
f 546/546/277 545/545/277 552/552/277
f 546/1/1 550/1/1 548/1/1
f 546/1/1 552/1/1 550/1/1
f 553/553/278 554/554/278 555/555/278
f 556/556/278 555/555/278 554/554/278
f 555/555/279 556/556/279 557/557/279
f 558/558/279 557/557/279 556/556/279
f 557/557/280 558/558/280 559/559/280
f 560/560/280 559/559/280 558/558/280
f 559/559/281 560/560/281 553/553/281
f 554/554/281 553/553/281 560/560/281
f 554/1/1 558/1/1 556/1/1
f 554/1/1 560/1/1 558/1/1
f 561/561/282 562/562/282 563/563/282
f 564/564/282 563/563/282 562/562/282
f 563/563/283 564/564/283 565/565/283
f 566/566/283 565/565/283 564/564/283
f 565/565/284 566/566/284 567/567/284
f 568/568/284 567/567/284 566/566/284
f 567/567/285 568/568/285 561/561/285
f 562/562/285 561/561/285 568/568/285
f 562/1/1 566/1/1 564/1/1
f 562/1/1 568/1/1 566/1/1
f 569/569/286 570/570/286 571/571/286
f 572/572/286 571/571/286 570/570/286
f 571/571/287 572/572/287 573/573/287
f 574/574/287 573/573/287 572/572/287
f 573/573/288 574/574/288 575/575/288
f 576/576/288 575/575/288 574/574/288
f 575/575/289 576/576/289 569/569/289
f 570/570/289 569/569/289 576/576/289
f 570/1/1 574/1/1 572/1/1
f 570/1/1 576/1/1 574/1/1
