# The Great Editor v0.0.1
mtllib floor_1.mtl
o floor_1
v 2.9943622372880094 -14.149219083191067 0
v 2.9943622372880094 -14.149219083191067 -0.1
v 50.22271666523141 -14.149219083191067 0
v 50.22271666523141 -14.149219083191067 -0.1
v 50.22271666523141 -39.97577727063648 0
v 50.22271666523141 -39.97577727063648 -0.1
v 2.9943622372880094 -39.97577727063648 0
v 2.9943622372880094 -39.97577727063648 -0.1
v 15.292663612569914 -19.68257319283118 0
v 15.292663612569914 -19.68257319283118 -0.1
v 15.301263933774127 -16.08258346583539 0
v 15.301263933774127 -16.08258346583539 -0.1
v 18.001256229020964 -16.089033706738554 0
v 18.001256229020964 -16.089033706738554 -0.1
v 17.99265590781675 -19.68902343373434 0
v 17.99265590781675 -19.68902343373434 -0.1
vt 2.9943622372880094 -14.149219083191067 0
vt 50.22271666523141 -14.149219083191067 0
vt 50.22271666523141 -39.97577727063648 0
vt 2.9943622372880094 -39.97577727063648 0
vt 15.292663612569914 -19.68257319283118 0
vt 15.301263933774127 -16.08258346583539 0
vt 18.001256229020964 -16.089033706738554 0
vt 17.99265590781675 -19.68902343373434 0
vn 0 0 1
vn 0 0 -1
usemtl floor_1
s off
f 1/1/1 7/4/1 9/5/1
f 10/5/2 8/4/2 2/1/2
f 1/1/1 9/5/1 11/6/1
f 12/6/2 10/5/2 2/1/2
f 1/1/1 11/6/1 13/7/1
f 14/7/2 12/6/2 2/1/2
f 1/1/1 13/7/1 3/2/1
f 4/2/2 14/7/2 2/1/2
f 3/2/1 13/7/1 15/8/1
f 16/8/2 14/7/2 4/2/2
f 3/2/1 15/8/1 5/3/1
f 6/3/2 16/8/2 4/2/2
f 7/4/1 5/3/1 15/8/1
f 16/8/2 6/3/2 8/4/2
f 7/4/1 15/8/1 9/5/1
f 10/5/2 16/8/2 8/4/2
