# The Great Editor v0.0.1
mtllib floor_1.mtl
o floor_1
v 2.994201399710574 -39.9797204706962 0
v 2.994201399710574 -39.9797204706962 -0.1
v 50.20645512009122 -39.99199475392686 0
v 50.20645512009122 -39.99199475392686 -0.1
v 50.21316724237254 -14.174241147241563 0
v 50.21316724237254 -14.174241147241563 -0.1
v 3.0009135219918917 -14.161966864010905 0
v 3.0009135219918917 -14.161966864010905 -0.1
v 8.759010878131047 -16.91748057351616 0
v 8.759010878131047 -16.91748057351616 -0.1
v 7.977846778074719 -19.414166982606584 0
v 7.977846778074719 -19.414166982606584 -0.1
v 15.292663612569914 -19.68257319283118 0
v 15.292663612569914 -19.68257319283118 -0.1
v 15.301263933774127 -16.08258346583539 0
v 15.301263933774127 -16.08258346583539 -0.1
v 9.323965335582713 -15.420608331929321 0
v 9.323965335582713 -15.420608331929321 -0.1
v 18.001256229020964 -16.089033706738554 0
v 18.001256229020964 -16.089033706738554 -0.1
v 48.18740258671972 -15.430712082514127 0
v 48.18740258671972 -15.430712082514127 -0.1
v 48.18664381387172 -18.349283826615682 0
v 48.18664381387172 -18.349283826615682 -0.1
v 38.69910324891516 -38.27789186540282 0
v 38.69910324891516 -38.27789186540282 -0.1
v 48.59563660348658 -38.28046477484525 0
v 48.59563660348658 -38.28046477484525 -0.1
v 38.69913621016705 -38.15110849582056 0
v 38.69913621016705 -38.15110849582056 -0.1
v 16.250770369144647 -38.027157920714764 0
v 16.250770369144647 -38.027157920714764 -0.1
v 36.79757117657326 -38.03249969605317 0
v 36.79757117657326 -38.03249969605317 -0.1
v 17.99265590781675 -19.68902343373434 0
v 17.99265590781675 -19.68902343373434 -0.1
v 5.634875994542107 -26.68456137159524 0
v 5.634875994542107 -26.68456137159524 -0.1
v 7.620449866899286 -36.518684325217755 0
v 7.620449866899286 -36.518684325217755 -0.1
v 8.638504602297845 -38.026339897114525 0
v 8.638504602297845 -38.026339897114525 -0.1
v 5.099108335872551 -32.91995060927369 0
v 5.099108335872551 -32.91995060927369 -0.1
v 4.061410003808941 -31.349440050649942 0
v 4.061410003808941 -31.349440050649942 -0.1
v 6.5018997264262355 -23.80723754459366 0
v 6.5018997264262355 -23.80723754459366 -0.1
v 48.185161442942686 -24.051129799538092 0
v 48.185161442942686 -24.051129799538092 -0.1
v 48.3880303145392 -24.051182541565687 0
v 48.3880303145392 -24.051182541565687 -0.1
v 48.38594445890675 -32.07429423718164 0
v 48.38594445890675 -32.07429423718164 -0.1
v 48.59725007487719 -32.07434917260146 0
v 48.59725007487719 -32.07434917260146 -0.1
v 36.79754046908218 -38.15061411728793 0
v 36.79754046908218 -38.15061411728793 -0.1
vt 2.994201399710574 -39.9797204706962 0
vt 50.20645512009122 -39.99199475392686 0
vt 50.21316724237254 -14.174241147241563 0
vt 3.0009135219918917 -14.161966864010905 0
vt 8.759010878131047 -16.91748057351616 0
vt 7.977846778074719 -19.414166982606584 0
vt 15.292663612569914 -19.68257319283118 0
vt 15.301263933774127 -16.08258346583539 0
vt 9.323965335582713 -15.420608331929321 0
vt 18.001256229020964 -16.089033706738554 0
vt 48.18740258671972 -15.430712082514127 0
vt 48.18664381387172 -18.349283826615682 0
vt 38.69910324891516 -38.27789186540282 0
vt 48.59563660348658 -38.28046477484525 0
vt 38.69913621016705 -38.15110849582056 0
vt 16.250770369144647 -38.027157920714764 0
vt 36.79757117657326 -38.03249969605317 0
vt 17.99265590781675 -19.68902343373434 0
vt 5.634875994542107 -26.68456137159524 0
vt 7.620449866899286 -36.518684325217755 0
vt 8.638504602297845 -38.026339897114525 0
vt 5.099108335872551 -32.91995060927369 0
vt 4.061410003808941 -31.349440050649942 0
vt 6.5018997264262355 -23.80723754459366 0
vt 48.185161442942686 -24.051129799538092 0
vt 48.3880303145392 -24.051182541565687 0
vt 48.38594445890675 -32.07429423718164 0
vt 48.59725007487719 -32.07434917260146 0
vt 36.79754046908218 -38.15061411728793 0
vn 0 0 1
vn 0 0 -1
usemtl floor_1
s off
f 9/5/1 11/6/1 13/7/1
f 14/7/2 12/6/2 10/5/2
f 9/5/1 13/7/1 15/8/1
f 16/8/2 14/7/2 10/5/2
f 9/5/1 15/8/1 17/9/1
f 18/9/2 16/8/2 10/5/2
f 17/9/1 15/8/1 19/10/1
f 20/10/2 16/8/2 18/9/2
f 17/9/1 19/10/1 21/11/1
f 22/11/2 20/10/2 18/9/2
f 21/11/1 19/10/1 23/12/1
f 24/12/2 20/10/2 22/11/2
f 25/13/1 27/14/1 29/15/1
f 30/15/2 28/14/2 26/13/2
f 31/16/1 33/17/1 35/18/1
f 36/18/2 34/17/2 32/16/2
f 31/16/1 35/18/1 13/7/1
f 14/7/2 36/18/2 32/16/2
f 31/16/1 13/7/1 37/19/1
f 38/19/2 14/7/2 32/16/2
f 31/16/1 37/19/1 39/20/1
f 40/20/2 38/19/2 32/16/2
f 31/16/1 39/20/1 41/21/1
f 42/21/2 40/20/2 32/16/2
f 43/22/1 39/20/1 37/19/1
f 38/19/2 40/20/2 44/22/2
f 43/22/1 37/19/1 45/23/1
f 46/23/2 38/19/2 44/22/2
f 47/24/1 37/19/1 13/7/1
f 14/7/2 38/19/2 48/24/2
f 47/24/1 13/7/1 11/6/1
f 12/6/2 14/7/2 48/24/2
f 19/10/1 35/18/1 23/12/1
f 24/12/2 36/18/2 20/10/2
f 23/12/1 35/18/1 49/25/1
f 50/25/2 36/18/2 24/12/2
f 51/26/1 49/25/1 53/27/1
f 54/27/2 50/25/2 52/26/2
f 55/28/1 53/27/1 27/14/1
f 28/14/2 54/27/2 56/28/2
f 27/14/1 53/27/1 29/15/1
f 30/15/2 54/27/2 28/14/2
f 29/15/1 53/27/1 49/25/1
f 50/25/2 54/27/2 30/15/2
f 29/15/1 49/25/1 33/17/1
f 34/17/2 50/25/2 30/15/2
f 29/15/1 33/17/1 57/29/1
f 58/29/2 34/17/2 30/15/2
f 33/17/1 49/25/1 35/18/1
f 36/18/2 50/25/2 34/17/2
